<?xml version="1.0" encoding="UTF-8"?>
<svg version="1.1" xmlns="http://www.w3.org/2000/svg" width="2048" height="2048">
<path d="M0 0 C2.18839201 -0.0030012 4.37678297 -0.00687382 6.56517208 -0.01153234 C12.56700509 -0.02178267 18.56877894 -0.01966606 24.57061688 -0.01547697 C30.43019112 -0.01335116 36.28974917 -0.02064546 42.14931856 -0.02761153 C54.27347743 -0.04168191 66.39762327 -0.04628062 78.52178955 -0.04563999 C90.80279302 -0.04501728 103.08378386 -0.04871215 115.36478424 -0.05762005 C116.14153939 -0.05817984 116.91829455 -0.05873962 117.71858773 -0.05931637 C120.88242828 -0.06160813 124.0462688 -0.06392649 127.2101093 -0.06627967 C160.19157424 -0.09076973 193.17303401 -0.10094349 226.154507 -0.10580682 C229.70333009 -0.10633055 233.25215318 -0.10685639 236.80097628 -0.10738349 C237.68168349 -0.10751255 238.56239071 -0.10764161 239.46978602 -0.10777458 C259.00328177 -0.11068265 278.53677608 -0.11684269 298.07027086 -0.1234808 C306.11879937 -0.1262044 314.1673279 -0.12883549 322.21585643 -0.13146645 C323.10522197 -0.13175736 323.99458751 -0.13204827 324.91090351 -0.132348 C375.8708283 -0.14896869 426.8307524 -0.16082749 477.79067993 -0.16326141 C479.69730995 -0.16335604 481.60393996 -0.16345105 483.51056997 -0.16354645 C492.11839896 -0.16397417 500.72622794 -0.16437955 509.33405693 -0.16478481 C513.17231113 -0.1649664 517.01056533 -0.16515129 520.84881953 -0.16533687 C522.76993537 -0.1654289 524.69105122 -0.16551929 526.61216706 -0.16560807 C587.3171985 -0.1684205 648.0221967 -0.19013002 708.72721672 -0.22699833 C754.00641556 -0.2544929 799.285608 -0.28036606 844.56481552 -0.28694344 C845.47738642 -0.28707687 846.38995732 -0.28721031 847.33018188 -0.28734779 C867.36918981 -0.29022092 887.40819761 -0.29163737 907.44720574 -0.291706 C914.61880248 -0.29174568 921.79039922 -0.29190262 928.96199597 -0.29212052 C930.74598076 -0.29217417 932.52996555 -0.29222228 934.31395035 -0.29226485 C962.67633849 -0.29300665 991.03869374 -0.30863155 1019.40107161 -0.33187615 C1047.99395177 -0.35520629 1076.58678972 -0.36233004 1105.17967695 -0.34769529 C1109.1430911 -0.34566801 1113.10650531 -0.34381397 1117.06991959 -0.34206295 C1118.23517416 -0.34153787 1118.23517416 -0.34153787 1119.42396924 -0.34100218 C1131.65516863 -0.33594322 1143.8862913 -0.347537 1156.11747492 -0.36630751 C1168.18586822 -0.38447294 1180.25415272 -0.38438599 1192.32254632 -0.36574518 C1198.76105358 -0.3562789 1205.19935052 -0.35481249 1211.63784207 -0.37571125 C1234.03419345 -0.44363027 1256.24511098 -0.4469581 1278.47637558 2.54848289 C1279.60557806 2.70061245 1279.60557806 2.70061245 1280.75759271 2.85581533 C1289.89612043 4.12942649 1298.76756822 6.02365024 1307.68710805 8.37892023 C1310.75911072 9.15772886 1313.79591589 9.78061277 1316.9205761 10.29912472 C1322.76502731 11.29685135 1328.36599485 12.9274182 1334.0377636 14.63506222 C1335.09350578 14.94886837 1336.14924797 15.26267452 1337.23698235 15.58598995 C1339.30517348 16.20201637 1341.37259504 16.82063411 1343.43913078 17.44219112 C1345.63883277 18.10273268 1347.84072109 18.75374876 1350.0455761 19.39678097 C1358.57998991 21.9314377 1366.86435248 25.05029943 1375.1627636 28.26006222 C1376.10377922 28.62228878 1377.04479485 28.98451534 1378.0143261 29.35771847 C1384.16830005 31.77046699 1390.17329957 34.46638995 1396.1627636 37.26006222 C1396.87706535 37.59199581 1397.59136711 37.92392941 1398.32731438 38.26592159 C1410.33217889 43.85417984 1422.04291465 49.67720824 1433.3658886 56.56474972 C1435.49400978 57.85470027 1437.62865707 59.12891351 1439.7721386 60.39287472 C1446.36242852 64.29016968 1452.81272028 68.24792549 1459.0143261 72.75224972 C1461.21688491 74.34967296 1461.21688491 74.34967296 1463.9362011 75.83037472 C1464.67096672 76.30217159 1465.40573235 76.77396847 1466.1627636 77.26006222 C1466.1627636 77.92006222 1466.1627636 78.58006222 1466.1627636 79.26006222 C1466.85499016 79.48951534 1467.54721672 79.71896847 1468.26041985 79.95537472 C1471.79073811 81.54235493 1474.61112893 83.72231913 1477.6002636 86.13506222 C1478.50083488 86.851217 1478.50083488 86.851217 1479.41959953 87.58183956 C1484.62422336 91.75229788 1489.69617801 96.07582096 1494.71916008 100.46269894 C1497.74094927 103.14731118 1497.74094927 103.14731118 1501.1627636 105.26006222 C1501.1627636 105.92006222 1501.1627636 106.58006222 1501.1627636 107.26006222 C1501.96907219 107.575238 1501.96907219 107.575238 1502.79166985 107.89678097 C1506.06614648 109.77947017 1508.4944795 112.38219586 1511.1002636 115.07256222 C1511.86886711 115.85470089 1511.86886711 115.85470089 1512.65299797 116.65264034 C1513.67400385 117.69180896 1514.69322587 118.73273341 1515.71061516 119.77544308 C1518.71026565 122.84216713 1521.75770308 125.86037861 1524.8112011 128.87334347 C1530.15133432 134.15992235 1535.30621889 139.52163855 1540.1627636 145.26006222 C1540.61522453 145.77310909 1541.06768547 146.28615597 1541.53385735 146.81474972 C1545.07556943 150.84808756 1548.4036201 155.04549191 1551.7252636 159.26006222 C1552.18449211 159.84159054 1552.64372063 160.42311886 1553.11686516 161.02226925 C1562.1627636 172.56146371 1562.1627636 172.56146371 1562.1627636 175.26006222 C1562.8227636 175.26006222 1563.4827636 175.26006222 1564.1627636 175.26006222 C1565.78385735 177.27178097 1565.78385735 177.27178097 1567.6002636 179.94756222 C1568.19709953 180.81767941 1568.79393547 181.68779659 1569.40885735 182.58428097 C1571.06273626 185.10745926 1572.61738523 187.66952006 1574.1627636 190.26006222 C1575.26326045 191.97076192 1576.36759476 193.67899758 1577.4752636 195.38506222 C1580.44856724 200.03320146 1583.14161699 204.77021234 1585.70573235 209.65459347 C1587.15991568 212.34800314 1587.15991568 212.34800314 1589.1002636 215.08428097 C1591.4386746 218.68490246 1593.20321643 222.35977751 1594.9752636 226.26006222 C1597.53627411 231.80610756 1600.1522078 237.31048713 1602.9127636 242.76006222 C1606.76673297 250.42430517 1610.16383416 258.05213569 1613.0377636 266.13506222 C1614.0851433 269.04445028 1615.17531655 271.93504425 1616.27750969 274.82402706 C1618.78160893 281.40673623 1621.16194161 288.02384018 1623.4127636 294.69756222 C1623.6588134 295.41822872 1623.9048632 296.13889523 1624.15836906 296.88140011 C1625.62909622 301.29814906 1626.75580358 305.70460872 1627.72038078 310.25786495 C1628.23356848 312.58052076 1628.9144647 314.815465 1629.6627636 317.07256222 C1631.10852557 321.74960221 1631.89797514 326.39971308 1632.63541985 331.23271847 C1633.13243238 334.08593855 1633.81963449 336.78575678 1634.6002636 339.57256222 C1636.84312625 348.19285759 1637.71378932 357.07944855 1638.74681779 365.91053421 C1639.02397744 368.14244515 1639.32972521 370.37099246 1639.6639815 372.59506904 C1641.31824702 384.11801379 1641.44605538 395.4716217 1641.42282581 407.09729862 C1641.42582701 409.28569063 1641.42969963 411.47408159 1641.43435815 413.6624707 C1641.44460849 419.66430372 1641.44249188 425.66607756 1641.43830279 431.6679155 C1641.43617697 437.52748974 1641.44347127 443.38704779 1641.45043734 449.24661718 C1641.46450772 461.37077606 1641.46910643 473.49492189 1641.46846581 485.61908817 C1641.4678431 497.90009165 1641.47153796 510.18108248 1641.48044586 522.46208286 C1641.48100565 523.23883802 1641.48156543 524.01559317 1641.48214218 524.81588635 C1641.48443394 527.9797269 1641.4867523 531.14356742 1641.48910548 534.30740792 C1641.51359554 567.28887286 1641.5237693 600.27033263 1641.52863263 633.25180562 C1641.52915636 636.80062871 1641.5296822 640.34945181 1641.5302093 643.8982749 C1641.53033836 644.77898211 1641.53046743 645.65968933 1641.5306004 646.56708464 C1641.53350847 666.10058039 1641.53966851 685.6340747 1641.54630662 705.16756949 C1641.54903021 713.21609799 1641.5516613 721.26462652 1641.55429226 729.31315506 C1641.55458317 730.20252059 1641.55487409 731.09188613 1641.55517382 732.00820213 C1641.5717945 782.96812693 1641.5836533 833.92805103 1641.58608723 884.88797855 C1641.58618185 886.79460857 1641.58627686 888.70123858 1641.58637226 890.6078686 C1641.58679999 899.21569758 1641.58720536 907.82352656 1641.58761062 916.43135555 C1641.58779222 920.26960975 1641.58797711 924.10786395 1641.58816268 927.94611815 C1641.58825471 929.867234 1641.58834511 931.78834984 1641.58843388 933.70946568 C1641.59124632 994.41449713 1641.61295583 1055.11949532 1641.64982414 1115.82451534 C1641.67731872 1161.10371418 1641.70319187 1206.38290662 1641.70976925 1251.66211414 C1641.70990269 1252.57468504 1641.71003612 1253.48725594 1641.7101736 1254.4274805 C1641.71304673 1274.46648843 1641.71446318 1294.50549623 1641.71453181 1314.54450436 C1641.7145715 1321.7161011 1641.71472843 1328.88769785 1641.71494633 1336.05929459 C1641.71499998 1337.84327938 1641.7150481 1339.62726417 1641.71509066 1341.41124897 C1641.71583247 1369.77363711 1641.73145736 1398.13599236 1641.75470196 1426.49837024 C1641.77803211 1455.09125039 1641.78515585 1483.68408834 1641.7705211 1512.27697557 C1641.76849382 1516.24038972 1641.76663978 1520.20380393 1641.76488876 1524.16721821 C1641.76453871 1524.94405459 1641.76418865 1525.72089098 1641.76382799 1526.52126786 C1641.75876903 1538.75246725 1641.77036281 1550.98358992 1641.78913332 1563.21477354 C1641.80729875 1575.28316684 1641.8072118 1587.35145134 1641.788571 1599.41984494 C1641.77910471 1605.8583522 1641.77763831 1612.29664914 1641.79853707 1618.7351407 C1641.86645609 1641.13149207 1641.86978391 1663.3424096 1638.87434292 1685.5736742 C1638.72221337 1686.70287668 1638.72221337 1686.70287668 1638.56701049 1687.85489133 C1637.29339932 1696.99341905 1635.39917557 1705.86486684 1633.04390558 1714.78440667 C1632.26509695 1717.85640935 1631.64221304 1720.89321451 1631.1237011 1724.01787472 C1630.12597446 1729.86232593 1628.49540761 1735.46329347 1626.7877636 1741.13506222 C1626.47395744 1742.19080441 1626.16015129 1743.24654659 1625.83683586 1744.33428097 C1625.22080945 1746.4024721 1624.60219171 1748.46989366 1623.98063469 1750.53642941 C1623.32009313 1752.73613139 1622.66907705 1754.93801971 1622.02604485 1757.14287472 C1619.49138811 1765.67728853 1616.37252638 1773.9616511 1613.1627636 1782.26006222 C1612.80053703 1783.20107784 1612.43831047 1784.14209347 1612.06510735 1785.11162472 C1609.65235883 1791.26559868 1606.95643586 1797.27059819 1604.1627636 1803.26006222 C1603.83083 1803.97436398 1603.49889641 1804.68866573 1603.15690422 1805.424613 C1597.56864597 1817.42947751 1591.74561757 1829.14021327 1584.8580761 1840.46318722 C1583.56812554 1842.5913084 1582.29391231 1844.7259557 1581.0299511 1846.86943722 C1577.13265613 1853.45972714 1573.17490032 1859.9100189 1568.6705761 1866.11162472 C1567.08207691 1868.30892149 1567.08207691 1868.30892149 1565.5924511 1870.97099972 C1564.1627636 1873.26006222 1564.1627636 1873.26006222 1562.1627636 1874.26006222 C1561.14459533 1875.91569236 1560.14833541 1877.58482314 1559.1627636 1879.26006222 C1552.78095152 1888.06381435 1545.81236169 1896.37120924 1538.65373039 1904.54790401 C1537.65918011 1905.69000016 1536.67361558 1906.83998333 1535.69718742 1907.99761105 C1530.43488128 1914.17025006 1524.70787051 1919.86639248 1518.96574211 1925.5874548 C1517.2288276 1927.31900922 1515.4973247 1929.05584581 1513.76627922 1930.79326534 C1508.06828929 1936.49503385 1502.33619966 1942.06810293 1496.1627636 1947.26006222 C1495.09443245 1948.18382159 1494.0266982 1949.10827185 1492.9596386 1950.03349972 C1474.98236107 1965.43638239 1474.98236107 1965.43638239 1467.1627636 1969.26006222 C1466.5646386 1969.85818722 1465.9665136 1970.45631222 1465.3502636 1971.07256222 C1461.16885223 1975.25397359 1456.21431529 1978.23672752 1451.1627636 1981.26006222 C1449.45206389 1982.36055907 1447.74382824 1983.46489338 1446.0377636 1984.57256222 C1441.38962436 1987.54586586 1436.65261347 1990.23891561 1431.76823235 1992.80303097 C1429.07482267 1994.2572143 1429.07482267 1994.2572143 1426.33854485 1996.19756222 C1422.73795546 1998.53595237 1419.06310378 2000.30069212 1415.1627636 2002.07256222 C1409.63138448 2004.62430617 1404.15180642 2007.2424499 1398.7252636 2010.01006222 C1394.097829 2012.34224704 1389.47738857 2014.45132953 1384.6393261 2016.30303097 C1381.86921205 2017.37350091 1379.14476837 2018.5333966 1376.4127636 2019.69756222 C1354.24458789 2028.93664942 1330.50898565 2036.53528843 1306.8112011 2040.58428097 C1304.30823066 2041.04789326 1301.82185925 2041.60836694 1299.3580761 2042.24834347 C1294.51378916 2043.49189381 1289.6174459 2044.12142753 1284.6627636 2044.76006222 C1283.78362297 2044.87736691 1282.90448235 2044.99467159 1281.9987011 2045.11553097 C1280.15883656 2045.35927371 1278.31810418 2045.5965466 1276.47660112 2045.82758458 C1274.26017205 2046.11684318 1272.04667266 2046.42947151 1269.836761 2046.76490976 C1258.29771178 2048.41734429 1246.92777305 2048.54107406 1235.28642082 2048.51453781 C1233.09379233 2048.51693119 1230.90116464 2048.52019863 1228.70853859 2048.52425441 C1222.69503557 2048.53284983 1216.6815952 2048.52905816 1210.66809125 2048.52319869 C1204.79734907 2048.51945232 1198.92662059 2048.52515845 1193.05588078 2048.53054627 C1180.90902387 2048.5413546 1168.76218248 2048.54270999 1156.61532211 2048.53884792 C1144.3117559 2048.53496732 1132.00820124 2048.53543355 1119.70463562 2048.54115772 C1118.92647374 2048.54151655 1118.14831186 2048.54187537 1117.34656932 2048.54224507 C1114.17703118 2048.54372005 1111.00749305 2048.54522445 1107.83795494 2048.54676654 C1075.68698741 2048.56239051 1043.53602782 2048.56508166 1011.38505717 2048.56261048 C1006.94454111 2048.56227202 1002.50402505 2048.56194992 998.06350899 2048.56164479 C997.18147104 2048.56158375 996.29943309 2048.56152271 995.39066672 2048.56145981 C975.8315159 2048.56018717 956.27236618 2048.56279067 936.71321568 2048.56617086 C932.24527892 2048.56694161 927.77734215 2048.56768634 923.30940539 2048.56843587 C921.51619098 2048.56873757 919.72297658 2048.56903945 917.92976218 2048.56934152 C917.04088717 2048.5694912 916.15201215 2048.56964088 915.23620153 2048.56979509 C913.43822787 2048.57009862 911.64025422 2048.57040331 909.84228057 2048.57070914 C858.83134589 2048.57938115 807.82041218 2048.58402686 756.80947685 2048.57976151 C755.86510907 2048.57968345 754.92074129 2048.57960539 753.94775631 2048.57952497 C743.41740017 2048.57865219 732.88704404 2048.57772293 722.3566879 2048.57677434 C720.93062423 2048.57664607 720.93062423 2048.57664607 719.47575119 2048.57651522 C711.57688597 2048.57580449 711.57688597 2048.57580449 707.94154355 2048.57547299 C647.14174243 2048.56993819 586.3419565 2048.57747697 525.54215813 2048.59624386 C510.22397172 2048.60096623 494.9057853 2048.60564681 479.5875988 2048.61008072 C478.17271854 2048.6104907 478.17271854 2048.6104907 476.72925484 2048.61090897 C447.64775472 2048.61928303 418.56625587 2048.62396019 389.48475456 2048.62478828 C388.57143417 2048.62481465 387.65811378 2048.62484102 386.71711702 2048.62486818 C366.66551387 2048.62540902 346.61391082 2048.62503639 326.56230769 2048.62382847 C319.38710837 2048.62340286 312.21190905 2048.62303773 305.03670972 2048.62269903 C303.25176559 2048.62261372 301.46682145 2048.62252479 299.68187732 2048.62243221 C271.26674883 2048.62098478 242.85163067 2048.62810102 214.43650466 2048.63943617 C185.01213784 2048.65109789 155.58778944 2048.65163714 126.16342252 2048.63959274 C122.99964839 2048.63834098 119.83587424 2048.63713748 116.67210007 2048.63597202 C115.89568201 2048.63568173 115.11926395 2048.63539143 114.31931807 2048.63509234 C102.05550664 2048.63077718 89.7917215 2048.63647988 77.5279142 2048.64641222 C65.45104042 2048.6559802 53.37420696 2048.65473324 41.29733548 2048.64220599 C34.84463044 2048.63595091 28.39202012 2048.63434548 21.93932056 2048.64606933 C16.05633716 2048.65665939 10.17352812 2048.65316882 4.29055386 2048.6389648 C2.18790556 2048.63626095 0.08524296 2048.63845492 -2.01739179 2048.64647194 C-16.83890003 2048.69907689 -31.17282764 2047.36875929 -45.8372364 2045.26006222 C-47.77158568 2044.99195718 -49.70606178 2044.7247654 -51.64067167 2044.45854749 C-59.37778754 2043.39321771 -66.90274372 2042.20682605 -74.39583015 2039.94365597 C-77.07013851 2039.19484963 -79.72341427 2038.71590469 -82.4622364 2038.26006222 C-86.70988848 2037.53705761 -90.57523022 2036.40984249 -94.6262989 2034.96709347 C-96.84502728 2034.25757079 -98.97954787 2033.83531591 -101.2747364 2033.44756222 C-114.83146496 2030.90436198 -128.00713599 2025.2078026 -140.8372364 2020.26006222 C-141.72540047 2019.92361691 -142.61356453 2019.58717159 -143.52864265 2019.24053097 C-156.07260885 2014.38413549 -168.08507694 2008.20292963 -180.07893562 2002.14287472 C-182.44708345 2000.95386853 -184.83105781 1999.79770341 -187.2122364 1998.63506222 C-191.26503514 1996.60530232 -195.14095024 1994.35776744 -199.00520515 1991.99053097 C-201.1445092 1990.68334243 -203.29108662 1989.39647869 -205.45051765 1988.12334347 C-212.04038609 1984.22868532 -218.48858878 1980.27118523 -224.6887989 1975.76787472 C-226.89135772 1974.17045148 -226.89135772 1974.17045148 -229.6106739 1972.68974972 C-230.34543953 1972.21795284 -231.08020515 1971.74615597 -231.8372364 1971.26006222 C-231.8372364 1970.60006222 -231.8372364 1969.94006222 -231.8372364 1969.26006222 C-232.51915047 1969.04092159 -233.20106453 1968.82178097 -233.90364265 1968.59599972 C-237.68087181 1966.87587672 -240.57712205 1964.50097923 -243.7747364 1961.88506222 C-248.01451895 1958.44913877 -252.28498513 1955.28181522 -256.8372364 1952.26006222 C-258.52435064 1950.61409711 -260.1917986 1948.94769073 -261.8372364 1947.26006222 C-262.6622364 1946.60006222 -263.4872364 1945.94006222 -264.3372364 1945.26006222 C-267.04902927 1943.09062792 -269.39556703 1940.7301231 -271.8372364 1938.26006222 C-272.7344239 1937.36287472 -273.6316114 1936.46568722 -274.5559864 1935.54131222 C-282.8372364 1927.26006222 -282.8372364 1927.26006222 -285.28645515 1924.80303097 C-287.16494838 1922.93029116 -289.05251724 1921.06983432 -290.95051765 1919.21709347 C-292.01696863 1918.16896189 -293.08337445 1917.12078436 -294.1497364 1916.07256222 C-294.69952156 1915.53953487 -295.24930672 1915.00650753 -295.81575203 1914.45732784 C-297.19439319 1913.09581266 -298.52063367 1911.68165719 -299.8372364 1910.26006222 C-299.8372364 1909.60006222 -299.8372364 1908.94006222 -299.8372364 1908.26006222 C-300.4972364 1908.26006222 -301.1572364 1908.26006222 -301.8372364 1908.26006222 C-303.45833015 1906.39678097 -303.45833015 1906.39678097 -305.2747364 1903.94756222 C-307.63345464 1900.75267032 -307.63345464 1900.75267032 -310.2891407 1897.81304073 C-311.77156759 1896.32593815 -313.06464224 1894.800917 -314.3606739 1893.15068722 C-315.05676765 1892.26510128 -315.05676765 1892.26510128 -315.7669239 1891.36162472 C-316.24387703 1890.75060909 -316.72083015 1890.13959347 -317.2122364 1889.51006222 C-317.68145515 1888.91451534 -318.1506739 1888.31896847 -318.6341114 1887.70537472 C-327.8372364 1875.95994999 -327.8372364 1875.95994999 -327.8372364 1873.26006222 C-328.4972364 1873.26006222 -329.1572364 1873.26006222 -329.8372364 1873.26006222 C-331.45833015 1871.24834347 -331.45833015 1871.24834347 -333.2747364 1868.57256222 C-333.87157234 1867.70244503 -334.46840828 1866.83232784 -335.08333015 1865.93584347 C-336.73720907 1863.41266517 -338.29185804 1860.85060438 -339.8372364 1858.26006222 C-340.93773326 1856.54936251 -342.04206757 1854.84112686 -343.1497364 1853.13506222 C-346.12304005 1848.48692298 -348.8160898 1843.74991209 -351.38020515 1838.86553097 C-352.83438849 1836.1721213 -352.83438849 1836.1721213 -354.7747364 1833.43584347 C-357.11314741 1829.83522197 -358.87768924 1826.16034692 -360.6497364 1822.26006222 C-363.21074691 1816.71401688 -365.82668061 1811.2096373 -368.5872364 1805.76006222 C-372.44168779 1798.0948607 -375.84142732 1790.4665206 -378.7122364 1782.38115597 C-379.7548482 1779.48863226 -380.84739658 1776.61865737 -381.95125008 1773.74907589 C-388.8186222 1755.79961144 -395.31607667 1736.86859088 -398.38020515 1717.85381222 C-398.88130129 1715.00998459 -399.57102323 1712.24797977 -400.2747364 1709.44756222 C-402.28990347 1700.89836859 -403.35122757 1692.20046975 -404.42126878 1683.491014 C-404.70235088 1681.30776068 -405.00883968 1679.12765101 -405.33865071 1676.95122576 C-406.99305484 1665.4060835 -407.11826258 1654.03136253 -407.091712 1642.38371944 C-407.09410537 1640.19109095 -407.09737282 1637.99846327 -407.1014286 1635.80583721 C-407.11002401 1629.79233419 -407.10623235 1623.77889382 -407.10037287 1617.76538987 C-407.0966265 1611.89464769 -407.10233263 1606.02391921 -407.10772046 1600.15317941 C-407.11852879 1588.00632249 -407.11988418 1575.85948111 -407.11602211 1563.71262074 C-407.11214151 1551.40905452 -407.11260774 1539.10549987 -407.11833191 1526.80193424 C-407.11869073 1526.02377236 -407.11904956 1525.24561049 -407.11941926 1524.44386794 C-407.12089423 1521.2743298 -407.12239863 1518.10479167 -407.12394073 1514.93525356 C-407.1395647 1482.78428603 -407.14225585 1450.63332644 -407.13978466 1418.48235579 C-407.1394462 1414.04183973 -407.13912411 1409.60132367 -407.13881898 1405.16080761 C-407.13875794 1404.27876966 -407.13869689 1403.39673171 -407.138634 1402.48796534 C-407.13736136 1382.92881452 -407.13996486 1363.3696648 -407.14334505 1343.8105143 C-407.14411579 1339.34257754 -407.14486053 1334.87464077 -407.14561006 1330.40670401 C-407.14591175 1328.61348961 -407.14621364 1326.8202752 -407.1465157 1325.0270608 C-407.14666538 1324.13818579 -407.14681506 1323.24931077 -407.14696928 1322.33350015 C-407.14727281 1320.5355265 -407.14757749 1318.73755284 -407.14788332 1316.93957919 C-407.15655533 1265.92864451 -407.16120105 1214.9177108 -407.15693569 1163.90677547 C-407.15685763 1162.96240769 -407.15677958 1162.01803991 -407.15669916 1161.04505493 C-407.15582638 1150.51469879 -407.15489712 1139.98434266 -407.15394852 1129.45398653 C-407.15386301 1128.50327741 -407.1537775 1127.5525683 -407.1536894 1126.57304982 C-407.15297867 1118.67418496 -407.15297867 1118.67418496 -407.15264718 1115.03884217 C-407.14711238 1054.23904105 -407.15465115 993.43925512 -407.17341805 932.63945675 C-407.17814042 917.32127034 -407.182821 902.00308392 -407.18725491 886.68489742 C-407.18752823 885.74164392 -407.18780155 884.79839041 -407.18808315 883.82655346 C-407.19645722 854.74505335 -407.20113438 825.6635545 -407.20196247 796.58205318 C-407.20198884 795.6687328 -407.2020152 794.75541241 -407.20204237 793.81441564 C-407.20258321 773.76281249 -407.20221057 753.71120944 -407.20100265 733.65960632 C-407.20057705 726.48440699 -407.20021192 719.30920767 -407.19987321 712.13400834 C-407.19978791 710.34906421 -407.19969898 708.56412008 -407.19960639 706.77917594 C-407.19815897 678.36404745 -407.20527521 649.94892929 -407.21661036 621.53380328 C-407.22827207 592.10943646 -407.22881133 562.68508806 -407.21676693 533.26072115 C-407.21551516 530.09694701 -407.21431167 526.93317286 -407.21314621 523.76939869 C-407.21285592 522.99298063 -407.21256562 522.21656257 -407.21226653 521.4166167 C-407.20795137 509.15280526 -407.21365407 496.88902012 -407.2235864 484.62521282 C-407.23315438 472.54833904 -407.23190742 460.47150558 -407.21938018 448.39463411 C-407.2131251 441.94192906 -407.21151967 435.48931875 -407.22324351 429.03661919 C-407.23383357 423.15363578 -407.23034301 417.27082674 -407.21613899 411.38785248 C-407.21343513 409.28520418 -407.21562911 407.18254159 -407.22364613 405.07990683 C-407.27625108 390.2583986 -405.94593347 375.92447098 -403.8372364 361.26006222 C-403.56913136 359.32571295 -403.30193959 357.39123685 -403.03572168 355.45662695 C-401.9703919 347.71951109 -400.78400024 340.1945549 -398.52083015 332.70146847 C-397.77202381 330.02716011 -397.29307888 327.37388435 -396.8372364 324.63506222 C-396.1142318 320.38741015 -394.98701668 316.5220684 -393.54426765 312.47099972 C-392.83474498 310.25227134 -392.4124901 308.11775075 -392.0247364 305.82256222 C-389.48153616 292.26583366 -383.78497679 279.09016263 -378.8372364 266.26006222 C-378.50079109 265.37189816 -378.16434578 264.48373409 -377.81770515 263.56865597 C-372.96130968 251.02468978 -366.78010382 239.01222168 -360.7200489 227.018363 C-359.53104272 224.65021517 -358.37487759 222.26624081 -357.2122364 219.88506222 C-355.1824765 215.83226348 -352.93494163 211.95634838 -350.56770515 208.09209347 C-349.26051662 205.95278942 -347.97365287 203.806212 -346.70051765 201.64678097 C-342.8058595 195.05691254 -338.84835942 188.60870984 -334.3450489 182.40849972 C-332.74762566 180.20594091 -332.74762566 180.20594091 -331.2669239 177.48662472 C-330.79512703 176.75185909 -330.32333015 176.01709347 -329.8372364 175.26006222 C-329.1772364 175.26006222 -328.5172364 175.26006222 -327.8372364 175.26006222 C-327.60778328 174.56912472 -327.37833015 173.87818722 -327.1419239 173.16631222 C-325.55316505 169.62728051 -323.36039335 166.77348975 -320.9622364 163.76006222 C-320.52782234 163.20447628 -320.09340828 162.64889034 -319.64583015 162.07646847 C-318.38338746 160.46524281 -317.11204056 158.86151744 -315.8372364 157.26006222 C-315.13469734 156.37447628 -314.43215828 155.48889034 -313.70833015 154.57646847 C-305.09742331 143.91620175 -295.61399681 133.85118793 -285.8372364 124.26006222 C-283.28927991 121.72041879 -280.75071098 119.17237278 -278.22395515 116.61162472 C-272.93770253 111.27182106 -267.57876067 106.11257628 -261.8372364 101.26006222 C-261.28938484 100.78439816 -260.74153328 100.30873409 -260.17708015 99.81865597 C-236.48148027 79.26006222 -236.48148027 79.26006222 -231.8372364 79.26006222 C-231.5072364 78.27006222 -231.1772364 77.28006222 -230.8372364 76.26006222 C-228.9466114 74.76006222 -228.9466114 74.76006222 -226.5872364 73.26006222 C-225.81895515 72.76506222 -225.0506739 72.27006222 -224.2591114 71.76006222 C-222.63421629 70.75367557 -221.00120303 69.76028832 -219.3606739 68.77959347 C-216.77380955 67.22186865 -214.24482433 65.59185438 -211.7122364 63.94756222 C-207.06409717 60.97425858 -202.32708628 58.28120882 -197.44270515 55.71709347 C-194.74929548 54.26291013 -194.74929548 54.26291013 -192.01301765 52.32256222 C-188.41239616 49.98415121 -184.73752111 48.21960938 -180.8372364 46.44756222 C-175.29119107 43.88655171 -169.78681149 41.27061801 -164.3372364 38.51006222 C-156.67299345 34.65609284 -149.04516293 31.25899165 -140.9622364 28.38506222 C-138.05284834 27.33768251 -135.16225438 26.24750927 -132.27327156 25.14531612 C-125.69056239 22.64121689 -119.07345844 20.26088421 -112.3997364 18.01006222 C-111.6790699 17.76401241 -110.9584034 17.51796261 -110.21589851 17.26445675 C-105.79914956 15.79372959 -101.3926899 14.66702223 -96.83943367 13.70244503 C-94.51677786 13.18925733 -92.28183362 12.50836111 -90.0247364 11.76006222 C-85.34769641 10.31430024 -80.69758554 9.52485067 -75.86458015 8.78740597 C-73.01136007 8.29039344 -70.31154185 7.60319132 -67.5247364 6.82256222 C-58.90444103 4.57969956 -50.01785007 3.70903649 -41.18676441 2.67600802 C-38.95485347 2.39884838 -36.72630616 2.0931006 -34.50222958 1.75884431 C-22.97928483 0.10457879 -11.62567692 -0.02322957 0 0 Z " fill="#000000" transform="translate(406.83723640441895,-0.26006221771240234)"/>
<path d="M0 0 C0.76893585 0.00041416 1.5378717 0.00082832 2.33010864 0.00125504 C48.54609084 0.03243981 48.54609084 0.03243981 71.5625 2.1875 C72.4224054 2.26762329 73.28231079 2.34774658 74.16827393 2.43029785 C97.50774459 4.63258952 120.60232929 7.3759644 143.5625 12.1875 C146.34351715 12.74865762 149.12576651 13.30335231 151.90820312 13.85742188 C153.59500141 14.19427308 155.281235 14.53396864 156.96679688 14.87695312 C161.34140802 15.76503208 165.7134059 16.56174619 170.125 17.25 C174.83127531 17.99797343 179.32573642 19.1517407 183.90234375 20.46875 C187.23186947 21.36835754 190.58089985 21.99094376 193.98046875 22.5625 C196.22113745 23.10487064 198.20154633 23.78528922 200.34375 24.6171875 C204.45684863 26.20169085 208.59794628 27.27205958 212.875 28.3125 C242.60672364 35.87191722 272.63430085 46.67620211 300.39453125 59.76171875 C303.51757879 61.16728268 306.66140698 62.38062508 309.875 63.5625 C315.83493316 65.791123 321.44563036 68.51290952 327.0949707 71.42138672 C330.53066252 73.18970017 333.9429451 74.83016691 337.5625 76.1875 C337.5625 76.8475 337.5625 77.5075 337.5625 78.1875 C338.2544043 78.28554932 338.94630859 78.38359863 339.65917969 78.48461914 C343.13679182 79.32653348 345.86079966 80.74318525 349.015625 82.43359375 C349.93438416 82.92316307 349.93438416 82.92316307 350.8717041 83.42262268 C352.85588626 84.48296038 354.83443694 85.55329586 356.8125 86.625 C358.18778658 87.36530672 359.5631123 88.10554074 360.93847656 88.84570312 C369.81224732 93.63510491 378.62144279 98.50772132 387.22949219 103.76318359 C388.97749871 104.83035292 390.72868264 105.89232066 392.48144531 106.95166016 C406.80943039 115.61332114 420.90669608 124.49705663 434.5625 134.1875 C435.69824463 134.9933252 435.69824463 134.9933252 436.85693359 135.81542969 C442.1226387 139.56472743 447.35269658 143.36097696 452.5625 147.1875 C453.24940918 147.6913623 453.93631836 148.19522461 454.64404297 148.71435547 C464.24680239 155.77906212 473.57022512 163.14107656 482.77294922 170.71826172 C484.39561259 172.05048385 486.02738098 173.37159673 487.66015625 174.69140625 C492.99767647 179.00796621 498.16681283 183.46009915 503.2421875 188.08203125 C505.26404184 189.91667685 507.30928522 191.71518786 509.375 193.5 C520.27079554 203.02394521 530.61621699 213.07985721 540.83056641 223.32519531 C542.95231009 225.45234784 545.07941491 227.57403561 547.20703125 229.6953125 C548.5836544 231.07259583 549.95996766 232.45018899 551.3359375 233.828125 C551.95898773 234.449151 552.58203796 235.070177 553.22396851 235.71002197 C556.99011833 239.496018 560.56895454 243.40036174 564.05718994 247.44407654 C565.97657171 249.66707052 567.95593361 251.8324245 569.9375 254 C573.83174618 258.31524576 577.52904724 262.75841755 581.18359375 267.27734375 C583.29186637 269.85642931 585.43538374 272.39669016 587.60131836 274.92700195 C602.00732275 291.7721448 615.15191732 309.83254316 627.5625 328.1875 C627.95356934 328.76387207 628.34463867 329.34024414 628.74755859 329.93408203 C635.2558327 339.54055236 641.50442815 349.29144492 647.5625 359.1875 C648.12098633 360.09790039 648.67947266 361.00830078 649.25488281 361.94628906 C661.63653354 382.18719093 673.22702253 402.82391515 683.5625 424.1875 C684.26487793 425.63721191 684.26487793 425.63721191 684.98144531 427.11621094 C700.08109154 458.32845771 700.08109154 458.32845771 703.0625 467.1875 C704.88186204 472.41745295 706.96374313 477.39801809 709.3125 482.40795898 C713.90052085 492.61003269 717.04552272 503.51653735 720.5625 514.125 C721.08839929 515.70772961 721.61444017 517.29041217 722.140625 518.87304688 C722.90841788 521.18250095 723.67581031 523.49208262 724.44165039 525.80218506 C725.55122449 529.14908046 726.66586654 532.49390797 727.79296875 535.83496094 C728.15003906 536.89360352 728.50710938 537.95224609 728.875 539.04296875 C729.18050781 539.94297607 729.48601562 540.8429834 729.80078125 541.77026367 C730.73545983 544.73637028 731.38890184 547.71413332 732.01171875 550.7578125 C732.67694582 553.69236031 733.52282029 556.55163244 734.375 559.4375 C737.12941385 568.93406117 739.3452269 578.55376288 741.5625 588.1875 C741.8409375 589.37988281 742.119375 590.57226562 742.40625 591.80078125 C744.28425035 600.15992411 745.67823806 608.59062039 747.02954102 617.0480957 C747.91763776 622.55411114 748.92626321 628.01201072 750.0625 633.47265625 C751.61879154 641.17248684 752.69336548 648.88323643 753.5625 656.6875 C753.68606873 657.7966124 753.68606873 657.7966124 753.81213379 658.9281311 C761.26243549 726.84933566 764.9728435 801.59615528 751 868.90869141 C750.32199695 872.44020954 749.93535061 875.98804345 749.5625 879.5625 C747.89355849 894.49928039 745.10441451 909.21895221 741.42114258 923.78808594 C740.65664123 926.81478958 739.90228449 929.84382648 739.15299988 932.87432861 C738.48339483 935.58193869 737.81064372 938.28876398 737.13793945 940.99560547 C736.79692069 942.36974389 736.45674659 943.74409221 736.11743164 945.11865234 C731.29388691 964.65016922 725.38453544 983.78096483 719.0625 1002.875 C718.51106323 1004.54888794 718.51106323 1004.54888794 717.94848633 1006.2565918 C715.37286292 1013.9914308 712.53983785 1021.59901506 709.5625 1029.1875 C709.10746094 1030.37601563 708.65242188 1031.56453125 708.18359375 1032.7890625 C703.94141751 1043.6255127 699.14656347 1054.21332852 694.390625 1064.83203125 C692.29904753 1069.50944749 690.27654859 1074.20543787 688.3125 1078.9375 C685.51898471 1085.49337982 682.21311273 1091.7231569 678.78417969 1097.96044922 C677.40176742 1100.48050611 676.03255192 1103.00751256 674.6640625 1105.53515625 C662.28984332 1128.36216865 649.46958701 1150.9706457 634.78222656 1172.40722656 C633.50239502 1174.27522728 632.23148935 1176.14911489 630.9609375 1178.0234375 C621.08630801 1192.54052303 610.86555239 1206.7791963 599.90527344 1220.49755859 C598.53231622 1222.22548765 597.17436336 1223.96425536 595.8203125 1225.70703125 C585.36799611 1239.14889513 574.27014465 1252.0045378 562.859375 1264.640625 C561.40694159 1266.2511464 559.95849324 1267.86527857 558.515625 1269.484375 C532.03666396 1299.14877497 532.03666396 1299.14877497 517.3203125 1311.6484375 C515.48322976 1313.2569055 513.77342213 1314.94588868 512.0625 1316.6875 C508.39953374 1320.39963359 504.52015399 1323.79430882 500.5625 1327.1875 C499.5191862 1328.09465539 498.47624621 1329.00224081 497.43359375 1329.91015625 C490.94998359 1335.53556011 484.37204096 1340.99464682 477.59204102 1346.25952148 C474.13223832 1348.94629188 470.73570532 1351.68903968 467.375 1354.5 C439.67105603 1377.25536247 408.84557023 1396.79965599 377.5625 1414.1875 C375.99314155 1415.06839066 374.42412389 1415.94988878 372.85546875 1416.83203125 C369.13837482 1418.91736579 365.4102183 1420.98150628 361.67285156 1423.03027344 C360.3087673 1423.77827892 358.94603722 1424.52876162 357.58496094 1425.28222656 C346.75127255 1431.26452045 335.6023866 1436.51683723 324.35791016 1441.67114258 C317.11341882 1444.98568024 317.11341882 1444.98568024 309.95703125 1448.484375 C306.93196986 1450.00212732 303.97267292 1451.20598609 300.80078125 1452.3515625 C298.1701362 1453.33403726 295.58872353 1454.41183509 293 1455.5 C280.09934896 1460.89540337 267.14792689 1465.87506967 253.91113281 1470.38427734 C252.33942814 1470.92179381 250.77103513 1471.46908831 249.20605469 1472.02587891 C236.91838638 1476.31850277 221.71427575 1477.57533148 209.5625 1472.1875 C201.50102315 1467.91965932 195.91936584 1460.55580063 192.5625 1452.1875 C192.22068884 1451.35482164 191.87887768 1450.52214329 191.5267086 1449.66423225 C190.28825775 1445.19864044 190.28708125 1441.11637445 190.3109436 1436.50509644 C190.3064884 1435.0508362 190.3064884 1435.0508362 190.30194318 1433.56719697 C190.2943093 1430.32061664 190.3007952 1427.07421757 190.30712891 1423.82763672 C190.30437838 1421.49782692 190.30069811 1419.16801806 190.29615784 1416.83821106 C190.28804313 1411.81770436 190.28587827 1406.79724221 190.28810501 1401.77672958 C190.29070275 1394.48748211 190.27952497 1387.19830184 190.26355521 1379.90907599 C190.23758763 1368.04160447 190.21757865 1356.17413287 190.20410156 1344.30664062 C190.20329119 1343.59664017 190.20248082 1342.88663971 190.2016459 1342.15512408 C190.19047427 1332.12602509 190.18515481 1322.09693161 190.18225877 1312.06782724 C190.18195279 1311.01283186 190.18195279 1311.01283186 190.18164062 1309.93652344 C190.18144069 1309.23406513 190.18124075 1308.53160683 190.18103476 1307.80786191 C190.1772757 1296.01016572 190.15800489 1284.21255257 190.12654626 1272.41489804 C190.10948108 1265.80881532 190.10042694 1259.20287338 190.10948563 1252.59676743 C190.40314385 1214.6878116 190.40314385 1214.6878116 185.5625 1177.1875 C185.27168582 1175.63732962 184.98314036 1174.08673101 184.69741821 1172.53561401 C183.58180445 1166.67997204 181.98625227 1161.64094261 179.5625 1156.1875 C179.05796985 1154.23554727 178.58140232 1152.27626349 178.125 1150.3125 C176.80447756 1144.87623758 175.0829628 1140.16998009 172.5625 1135.1875 C172.26069824 1134.57745117 171.95889648 1133.96740234 171.64794922 1133.33886719 C164.58932293 1119.14105968 155.97511169 1107.38821985 145.06640625 1095.90234375 C142.5625 1093.1875 142.5625 1093.1875 140.5625 1090.1875 C143.83909613 1088.54920194 147.51620575 1088.64323554 151.125 1088.3125 C158.94044419 1087.54438469 166.59646436 1086.39688678 174.3125 1084.95703125 C177.09826761 1084.43980196 179.88311416 1083.97834133 182.6875 1083.57421875 C193.29604458 1082.04132443 203.76775436 1079.9727029 214.25 1077.75 C214.93884277 1077.60469849 215.62768555 1077.45939697 216.33740234 1077.30969238 C231.60687487 1074.07807242 246.51305085 1070.46019372 261.25 1065.25 C262.45205078 1064.83298828 263.65410156 1064.41597656 264.89257812 1063.98632812 C278.11264334 1059.37036364 290.97400998 1054.31787869 303.5625 1048.1875 C304.52978027 1047.71747559 305.49706055 1047.24745117 306.49365234 1046.76318359 C337.64204528 1031.56618396 368.40385663 1014.00446777 392.8125 988.9375 C393.72 988.03 394.6275 987.1225 395.5625 986.1875 C396.2225 986.1875 396.8825 986.1875 397.5625 986.1875 C397.81773438 985.60226562 398.07296875 985.01703125 398.3359375 984.4140625 C399.68444993 981.96612593 401.1513745 980.46883264 403.1875 978.5625 C422.74087276 959.394588 436.48962877 933.95292175 447.5625 909.1875 C447.94664063 908.36636719 448.33078125 907.54523437 448.7265625 906.69921875 C451.81973485 900.02249306 454.27614648 893.08271852 456.82446289 886.18505859 C458.62642471 881.30789961 460.42666469 876.45706105 462.5 871.6875 C464.70453454 866.18864216 466.0725854 860.54124913 467.4375 854.7890625 C468.20055257 851.59447103 469.04138285 848.43323521 469.9375 845.2734375 C472.97099149 834.46343186 475.40923542 823.5850955 477.36749268 812.53262329 C477.72696833 810.50491561 478.09819209 808.47930065 478.47021484 806.45385742 C483.0578826 780.23431377 484.07655637 753.59293451 483.95361328 727.03369141 C483.93636527 723.28060611 483.9468058 719.52815223 483.96394634 715.77508736 C484.03111717 698.38023367 483.35446816 681.40115266 480.5625 664.1875 C480.35333199 662.87738449 480.35333199 662.87738449 480.13993835 661.540802 C478.84960318 652.83440342 478.84960318 652.83440342 476.59765625 644.3515625 C475.72355143 641.67977042 475.15380883 639.20987578 474.64453125 636.45703125 C473.61489036 631.09628166 472.02143946 626.03176131 470.25 620.875 C469.77880737 619.49054688 469.77880737 619.49054688 469.2980957 618.078125 C468.39568034 615.4445219 467.48167203 612.81529422 466.5625 610.1875 C466.1603125 609.02863281 465.758125 607.86976563 465.34375 606.67578125 C455.38697752 579.47245643 440.30939628 553.26797439 421.5625 531.1875 C420.62096958 530.07302155 419.67957332 528.95842976 418.73828125 527.84375 C417.27255664 526.10944462 415.80505654 524.37690612 414.32958984 522.65087891 C413.06563799 521.17009275 411.81362066 519.67914305 410.5625 518.1875 C409.95019531 517.48109375 409.33789062 516.7746875 408.70703125 516.046875 C407.5625 514.1875 407.5625 514.1875 408.0625 510.3125 C409.11597229 506.32621289 410.51710653 502.49358718 411.9375 498.625 C415.8226651 487.96364989 418.34376774 477.10967865 420.25 465.9375 C420.36939941 465.24172852 420.48879883 464.54595703 420.61181641 463.82910156 C422.59261278 451.531538 422.83828719 439.17743767 422.875 426.75 C422.87761841 425.89733551 422.88023682 425.04467102 422.88293457 424.16616821 C422.88815001 408.19853322 421.47156823 392.91205276 418.5625 377.1875 C418.41296875 376.34606445 418.2634375 375.50462891 418.109375 374.63769531 C414.4848404 354.7279254 408.89384295 330.69060044 398.5625 313.1875 C385.47324084 305.65038813 360.02276517 311.66143046 346.2578125 315.2890625 C331.0067178 319.52441168 316.18679585 325.17148532 301.5625 331.1875 C300.47839844 331.63222656 299.39429688 332.07695313 298.27734375 332.53515625 C269.57649285 344.40010978 242.30001073 358.51908999 216.26269531 375.44287109 C210.97035413 378.86231685 205.62442678 382.1974658 200.28637695 385.54492188 C199.17588989 386.24391602 199.17588989 386.24391602 198.04296875 386.95703125 C197.39223389 387.36542236 196.74149902 387.77381348 196.07104492 388.19458008 C194.57845554 389.10424951 194.57845554 389.10424951 193.5625 390.1875 C184.40400899 390.11069924 175.46793763 387.44678381 166.8125 384.6875 C161.73687047 383.11627595 156.58661741 382.17867351 151.35839844 381.27734375 C148.27046185 380.73683968 145.299575 380.10928217 142.29296875 379.21484375 C137.26816358 377.83104924 132.21268359 377.08166294 127.0625 376.3125 C125.38269043 376.05750732 125.38269043 376.05750732 123.66894531 375.79736328 C110.8533101 373.88292889 98.00026007 372.27237779 85.14404297 370.65869141 C81.6273697 370.19603432 78.1239873 369.67240801 74.6171875 369.140625 C67.07718152 368.05882548 59.54037361 367.47627267 51.9375 367.0625 C50.81245056 366.99946182 50.81245056 366.99946182 49.66467285 366.93515015 C33.55644772 366.06695156 17.43808026 365.99912084 1.31067657 365.99991608 C-0.66668212 365.99999913 -2.64404071 365.99863398 -4.62139893 365.99725342 C-27.29300636 365.73407947 -27.29300636 365.73407947 -49.84448242 367.69775391 C-53.92885509 368.25447413 -57.95163798 368.42065096 -62.06640625 368.57421875 C-71.70917208 369.01426853 -81.17339518 370.19175121 -90.71655273 371.60668945 C-93.3688584 371.99909137 -96.02298533 372.37647724 -98.67773438 372.75195312 C-109.90021917 374.36588128 -121.00010209 376.38724089 -132.09796143 378.70330811 C-134.62272724 379.22583471 -137.15036418 379.73240797 -139.67895508 380.23608398 C-144.98487053 381.29383559 -150.27495739 382.41664153 -155.5625 383.5625 C-157.05885986 383.88577271 -157.05885986 383.88577271 -158.58544922 384.21557617 C-165.85851423 385.80279847 -173.0667799 387.56509811 -180.2578125 389.48828125 C-185.06906256 390.54628341 -187.19448836 390.90110942 -191.57421875 388.38671875 C-192.76482284 387.55947865 -193.94799762 386.72148077 -195.125 385.875 C-196.46010851 384.95004135 -197.79744575 384.02829341 -199.13671875 383.109375 C-199.83716309 382.62791016 -200.53760742 382.14644531 -201.25927734 381.65039062 C-207.12180954 377.71312399 -213.22439073 374.13956852 -219.27246094 370.49707031 C-221.3059735 369.26705662 -223.33006577 368.02307126 -225.3515625 366.7734375 C-233.52097086 361.75029052 -241.87273193 357.32347768 -250.49853516 353.13720703 C-252.38745532 352.21201194 -254.2636442 351.26540889 -256.13671875 350.30859375 C-262.4801695 347.07755118 -268.83794127 344.10540672 -275.4375 341.4375 C-278.67194261 340.08981558 -281.83103521 338.61979471 -285 337.125 C-289.834419 334.8689378 -294.68170592 332.93556901 -299.71484375 331.17578125 C-302.54471535 330.14858252 -305.29557905 328.99832326 -308.0625 327.8125 C-319.62835602 322.94975329 -331.39435161 319.00640368 -343.55859375 315.94921875 C-346.4375 315.1875 -346.4375 315.1875 -348.4375 314.1875 C-364.21358588 311.01275205 -379.45260833 310.54802393 -395.4375 312.1875 C-395.58445312 313.15429688 -395.58445312 313.15429688 -395.734375 314.140625 C-396.67764181 318.22811451 -398.18796044 322.02565767 -399.6875 325.9375 C-403.0639865 334.90784115 -405.86048734 343.96044342 -408.4375 353.1875 C-408.79328125 354.38632812 -409.1490625 355.58515625 -409.515625 356.8203125 C-410.33994042 359.83115951 -410.91893545 362.72863493 -411.375 365.8125 C-412.03327434 370.01094264 -412.88466697 374.07139902 -413.9375 378.1875 C-417.54981209 393.57720346 -417.816346 409.57489335 -417.75 425.3125 C-417.74776428 426.63781235 -417.74776428 426.63781235 -417.7454834 427.98989868 C-417.68564428 447.83572204 -416.65855961 467.20114924 -410.4375 486.1875 C-410.08137621 487.72406209 -409.74578287 489.26562932 -409.4375 490.8125 C-408.12923389 497.03844495 -406.38536515 503.73388383 -403.25 509.29296875 C-402.4375 511.1875 -402.4375 511.1875 -402.48046875 513.046875 C-403.95191704 516.33811445 -406.35761834 518.79068099 -408.75 521.4375 C-424.00321628 538.79073025 -436.6303758 557.8015384 -447.4375 578.1875 C-447.99099121 579.22656494 -447.99099121 579.22656494 -448.55566406 580.28662109 C-453.07890429 588.84304969 -456.87402628 597.47882283 -460.13671875 606.58984375 C-461.18189576 609.48055853 -462.29921668 612.2976576 -463.5 615.125 C-467.52503051 625.11179117 -470.4482622 635.60530273 -471.94067383 646.26318359 C-472.39599929 648.94322705 -473.05237671 651.38428031 -473.85546875 653.9765625 C-475.96609136 661.59754546 -476.80648741 669.34548597 -477.625 677.1875 C-477.75382568 678.41783966 -477.75382568 678.41783966 -477.88525391 679.67303467 C-480.90611814 709.39597774 -479.88845286 738.93901707 -477.6875 768.6875 C-477.60927002 769.77734192 -477.53104004 770.86718384 -477.45043945 771.99005127 C-476.54461264 784.28132054 -475.14732046 796.18263378 -472.33105469 808.19067383 C-471.46622434 811.89496182 -470.90695683 815.59851814 -470.4375 819.375 C-469.41493374 827.16293771 -467.43946497 834.6019296 -465.4375 842.1875 C-465.13714844 843.43917969 -464.83679688 844.69085937 -464.52734375 845.98046875 C-463.25273251 851.10129714 -461.61853225 856.10445727 -460 861.125 C-459.70029297 862.06279297 -459.40058594 863.00058594 -459.09179688 863.96679688 C-457.46126482 869.05646202 -455.79867239 874.13431582 -454.10083008 879.2019043 C-453.5295408 880.91198736 -452.9688266 882.62559669 -452.41015625 884.33984375 C-444.94101499 907.19605714 -434.16044145 930.3919337 -420.4375 950.1875 C-420.06802246 950.72391113 -419.69854492 951.26032227 -419.31787109 951.81298828 C-410.32444385 964.81959208 -400.31985759 976.72881817 -389.4375 988.1875 C-388.65246094 989.01507812 -387.86742187 989.84265625 -387.05859375 990.6953125 C-382.05370383 995.83450179 -376.738637 1000.45220517 -371.09814453 1004.88183594 C-369.92089853 1005.80743306 -368.74780101 1006.73831762 -367.57763672 1007.67285156 C-345.63113751 1025.17182882 -320.98177958 1038.55756802 -295.51513672 1050.23095703 C-293.5879308 1051.11824173 -291.66956412 1052.02170071 -289.75390625 1052.93359375 C-284.1216642 1055.59381644 -278.50048359 1058.01613614 -272.6171875 1060.0625 C-270.12537841 1060.94412287 -267.66101092 1061.86223523 -265.1953125 1062.8125 C-254.82672473 1066.78164875 -244.4656775 1069.99459942 -233.68359375 1072.63330078 C-231.53406037 1073.16367478 -229.39163577 1073.71602792 -227.25 1074.27734375 C-219.30009677 1076.3455878 -211.34258222 1078.04269919 -203.25390625 1079.4765625 C-200.5128991 1079.98716977 -197.82886444 1080.55119804 -195.1171875 1081.18359375 C-190.11402073 1082.31256805 -185.08483632 1082.98021337 -180 1083.625 C-172.1648205 1084.64950888 -164.38230138 1085.83534186 -156.59985352 1087.20068359 C-151.28598042 1088.10927644 -146.01482619 1088.63187255 -140.625 1088.87890625 C-138.4375 1089.1875 -138.4375 1089.1875 -136.4375 1091.1875 C-136.88738281 1091.60257813 -137.33726562 1092.01765625 -137.80078125 1092.4453125 C-151.46076967 1105.53043167 -162.56411665 1121.71670328 -169.36328125 1139.39453125 C-170.07599218 1141.24757967 -170.84444221 1143.0801891 -171.66796875 1144.88671875 C-177.52248426 1157.80268067 -180.35988101 1172.01274589 -182.44970703 1185.9831543 C-183.23216012 1190.98216012 -183.23216012 1190.98216012 -185.4375 1193.1875 C-187.31005859 1193.99365234 -187.31005859 1193.99365234 -189.5859375 1194.7734375 C-190.83733521 1195.20692505 -190.83733521 1195.20692505 -192.11401367 1195.64916992 C-193.00451416 1195.95056885 -193.89501465 1196.25196777 -194.8125 1196.5625 C-195.72427002 1196.87485596 -196.63604004 1197.18721191 -197.57543945 1197.5090332 C-199.38719509 1198.12872154 -201.19976067 1198.74604765 -203.01318359 1199.36083984 C-204.95790012 1200.02396272 -206.89610994 1200.70615417 -208.83203125 1201.39453125 C-211.68360919 1202.39557469 -214.544574 1203.31315968 -217.4375 1204.1875 C-218.55253906 1204.52523438 -219.66757812 1204.86296875 -220.81640625 1205.2109375 C-259.36824032 1215.94517456 -304.22696078 1215.53643617 -339.61669922 1196.21972656 C-354.49043766 1187.78768498 -368.60904342 1176.44907132 -379.4375 1163.1875 C-380.25992187 1162.19105469 -381.08234375 1161.19460938 -381.9296875 1160.16796875 C-390.19607036 1149.9953327 -397.21785644 1139.11797501 -404.03515625 1127.9375 C-408.98890782 1119.83343637 -414.1461113 1112.34589987 -420.4375 1105.1875 C-421.16710937 1104.33671875 -421.89671875 1103.4859375 -422.6484375 1102.609375 C-438.60842924 1084.35338445 -460.04142617 1069.50132551 -482.4375 1060.1875 C-484.14486328 1059.4140625 -484.14486328 1059.4140625 -485.88671875 1058.625 C-498.73926128 1052.93642106 -511.39283753 1052.05133945 -525.3125 1051.9375 C-526.26318359 1051.92799316 -527.21386719 1051.91848633 -528.19335938 1051.90869141 C-539.70226092 1051.95283068 -539.70226092 1051.95283068 -550.0625 1056.375 C-552.62087503 1058.997957 -552.62087503 1058.997957 -553.25 1062.25 C-552.11386466 1073.41796869 -541.71155376 1083.39026863 -533.4375 1090.1875 C-528.07716994 1094.16247449 -522.31126087 1097.50072731 -516.5625 1100.875 C-509.15395691 1105.35458419 -503.08909074 1110.76793653 -496.90527344 1116.77099609 C-495.644922 1117.98732328 -494.35988582 1119.17798036 -493.0703125 1120.36328125 C-470.85567579 1141.31664737 -454.41673709 1171.36655698 -443.46875 1199.5859375 C-441.2543138 1205.17235608 -438.81826729 1210.6704686 -436.4375 1216.1875 C-435.93476562 1217.37859375 -435.43203125 1218.5696875 -434.9140625 1219.796875 C-420.95885612 1251.84216373 -393.46881081 1275.16892631 -361.4375 1288.1875 C-360.39078125 1288.62835937 -359.3440625 1289.06921875 -358.265625 1289.5234375 C-352.31252976 1291.94100904 -346.67237213 1293.74807472 -340.31591797 1294.69287109 C-337.53486007 1295.17076959 -334.88938776 1295.83312568 -332.16796875 1296.57421875 C-307.15127761 1302.87655558 -281.0971651 1303.68997715 -255.4375 1303.75 C-254.22253845 1303.75848969 -253.0075769 1303.76697937 -251.75579834 1303.77572632 C-237.34311986 1303.84745482 -223.61774995 1302.99702448 -209.4609375 1300.23803711 C-201.52213987 1298.73226583 -193.46953445 1298.01401935 -185.4375 1297.1875 C-185.36734214 1316.58960995 -185.31447864 1335.99169408 -185.28206348 1355.39390469 C-185.26661086 1364.40318994 -185.24555209 1373.41239627 -185.21118164 1382.42163086 C-185.18123008 1390.27634122 -185.16191333 1398.13099439 -185.15523452 1405.98576027 C-185.15133199 1410.14275923 -185.14219414 1414.29959464 -185.12030983 1418.45654106 C-185.0998536 1422.3741927 -185.09368454 1426.29161437 -185.09817696 1430.20931435 C-185.09735582 1431.64233528 -185.09144471 1433.0753644 -185.07988358 1434.50833893 C-184.97719391 1447.90036388 -187.21622186 1457.12509176 -196.4375 1467.1875 C-207.40475531 1475.78994088 -219.60192726 1476.19853094 -232.93359375 1474.828125 C-245.56484796 1472.70618899 -257.52044862 1467.73176946 -269.4375 1463.1875 C-270.51233643 1462.77927002 -270.51233643 1462.77927002 -271.60888672 1462.36279297 C-275.91700007 1460.71367302 -280.18196103 1458.96675552 -284.4375 1457.1875 C-285.43523437 1456.77177734 -286.43296875 1456.35605469 -287.4609375 1455.92773438 C-290.93445573 1454.47776112 -294.40524457 1453.02145354 -297.875 1451.5625 C-298.9899585 1451.09473145 -300.10491699 1450.62696289 -301.25366211 1450.14501953 C-306.44962798 1447.94707237 -311.56467279 1445.68911293 -316.58374023 1443.11279297 C-319.20408931 1441.80486158 -321.88589337 1440.65777154 -324.57519531 1439.5 C-339.00161018 1433.28115928 -352.75201069 1425.83805933 -366.3359375 1417.96875 C-369.05495824 1416.40719652 -371.795265 1414.91107405 -374.5625 1413.4375 C-398.90586076 1400.24102526 -422.24630527 1384.7227217 -444.4375 1368.1875 C-445.35160645 1367.50905029 -445.35160645 1367.50905029 -446.28417969 1366.81689453 C-457.6033625 1358.41093784 -468.62937962 1349.74090892 -479.4375 1340.68359375 C-482.2268679 1338.36275249 -485.04682898 1336.08572467 -487.875 1333.8125 C-492.74599056 1329.84642495 -497.36261066 1325.65047886 -501.93530273 1321.34814453 C-504.23399825 1319.19039146 -506.53887185 1317.10692633 -509.0078125 1315.14453125 C-511.68752793 1312.98611094 -514.01605194 1310.6333017 -516.4375 1308.1875 C-517.3843104 1307.24408796 -518.33209344 1306.30165122 -519.28076172 1305.36010742 C-522.03578896 1302.62295186 -524.78770602 1299.88269253 -527.53857422 1297.14135742 C-528.71670821 1295.96824987 -529.89573848 1294.79604172 -531.07568359 1293.62475586 C-543.00580361 1281.77958922 -543.00580361 1281.77958922 -548.02587891 1275.81567383 C-549.58477466 1274.01763236 -551.23880923 1272.35335271 -552.9375 1270.6875 C-556.64963445 1267.02442459 -560.03720825 1263.13902302 -563.4375 1259.1875 C-564.45374676 1258.02284352 -565.47073925 1256.85883752 -566.48828125 1255.6953125 C-571.94286373 1249.44840868 -577.35874426 1243.1927944 -582.48266602 1236.66894531 C-584.37137709 1234.27143572 -586.27886703 1231.8902425 -588.19140625 1229.51171875 C-610.85260826 1201.19499861 -631.54837445 1171.25079043 -650.10546875 1140.08984375 C-651.65505951 1137.48895434 -653.22052601 1134.89877457 -654.80078125 1132.31640625 C-658.7531114 1125.84069709 -662.47018304 1119.36321695 -665.78515625 1112.53125 C-667.88104385 1108.28992662 -670.09683366 1104.11715624 -672.3125 1099.9375 C-679.82877612 1085.6852421 -686.75626722 1071.37776944 -693.109375 1056.5625 C-694.92827529 1052.33113259 -696.83325064 1048.1584229 -698.8125 1044 C-701.10766022 1039.10021976 -702.87645776 1034.15653441 -704.515625 1029.00390625 C-705.62920723 1025.60181817 -706.95386454 1022.31714523 -708.3046875 1019.00390625 C-712.51311163 1008.54089317 -716.27159034 998.01358267 -719.4375 987.1875 C-719.95535049 985.45561589 -720.47361631 983.72385595 -720.9921875 981.9921875 C-724.90847374 968.8273895 -728.4772698 955.59366328 -731.87109375 942.28515625 C-732.7695964 938.76266023 -733.68297652 935.24758562 -734.66015625 931.74609375 C-736.830637 923.9637236 -738.4235848 916.22153442 -739.7265625 908.2578125 C-740.20110624 905.40570775 -740.78114296 902.59878836 -741.4296875 899.78125 C-742.49945458 895.0708403 -743.24613037 890.34130766 -743.9375 885.5625 C-744.11345703 884.38107422 -744.11345703 884.38107422 -744.29296875 883.17578125 C-745.233408 876.7949515 -746.07487935 870.40186051 -746.91992188 864.0078125 C-747.39844584 860.47576392 -747.91059395 856.95088607 -748.4375 853.42578125 C-750.3878188 840.1219931 -751.83211665 826.90242848 -752.546875 813.48046875 C-752.58874687 812.71618057 -752.63061874 811.9518924 -752.67375946 811.16444397 C-753.55870741 794.72116224 -753.74698523 778.29704416 -753.69824219 761.83300781 C-753.6868489 757.96193617 -753.69365399 754.09113986 -753.70511913 750.22007751 C-753.77625208 721.836667 -752.86914314 693.40518099 -749.625 665.1875 C-749.50102341 664.06752625 -749.50102341 664.06752625 -749.37454224 662.92492676 C-747.84640535 649.17979541 -745.62372352 635.62128001 -742.98388672 622.04345703 C-742.36933504 618.83120257 -741.81575517 615.61189299 -741.27563477 612.38647461 C-738.38991355 595.22007957 -734.85421641 577.84195544 -729.5625 561.25 C-728.37512911 557.49878753 -727.31598377 553.77101662 -726.4921875 549.92578125 C-723.93494388 538.04479301 -720.40185943 526.66129423 -716.4375 515.1875 C-716.18033203 514.44191833 -715.92316406 513.69633667 -715.65820312 512.92816162 C-710.34547559 497.57845146 -704.41444281 482.48749119 -698.33935547 467.42578125 C-697.59866651 465.58749311 -696.86307539 463.74715171 -696.12890625 461.90625 C-692.9570448 454.09183701 -689.32392319 446.50623748 -685.68359375 438.90234375 C-684.33920495 436.09237387 -683.0115394 433.27725733 -681.72265625 430.44140625 C-673.01533865 411.34491753 -662.85020806 393.05431175 -652.125 375.02734375 C-650.53207497 372.34665741 -648.95206144 369.6587897 -647.375 366.96875 C-640.69389743 355.63065266 -633.56995939 344.6371479 -626.17675781 333.75146484 C-624.48172072 331.25268894 -622.79851921 328.74629269 -621.1171875 326.23828125 C-614.39228458 316.25278878 -607.33297606 306.6001834 -599.92919922 297.10839844 C-598.53516814 295.31326971 -597.15664633 293.50769432 -595.78515625 291.6953125 C-591.1605915 285.59326831 -586.37928082 279.66401783 -581.3996582 273.85058594 C-578.6894774 270.68447342 -576.06364032 267.4729935 -573.5 264.1875 C-568.95583319 258.45628553 -563.96365429 253.16563932 -558.96777344 247.83105469 C-557.0051363 245.7231298 -555.06924295 243.59166463 -553.13305664 241.45947266 C-548.71247505 236.59488207 -544.17410264 231.88435233 -539.48828125 227.2734375 C-537.51936867 225.27077213 -535.69166589 223.20313114 -533.875 221.0625 C-531.039628 217.75997288 -527.98865149 214.97694419 -524.671875 212.16796875 C-521.98103947 209.78290999 -519.45953721 207.24756656 -516.9375 204.6875 C-513.25636624 200.96119896 -509.50452256 197.38891538 -505.51953125 193.98828125 C-503.00596422 191.81425798 -500.56973771 189.56359512 -498.125 187.3125 C-492.72279859 182.39131653 -487.12520102 177.77248347 -481.4375 173.1875 C-480.20744984 172.17815906 -478.9783379 171.16767402 -477.75 170.15625 C-468.50613553 162.56082699 -459.07943567 155.26960964 -449.4375 148.1875 C-448.73931152 147.67219727 -448.04112305 147.15689453 -447.32177734 146.62597656 C-435.28260087 137.75557902 -422.95869412 129.36127753 -410.4375 121.1875 C-409.56109863 120.61386719 -408.68469727 120.04023438 -407.78173828 119.44921875 C-379.82898416 101.21535889 -350.52315587 83.77690241 -319.92993164 70.29663086 C-317.16216277 69.06497507 -314.41058533 67.80114769 -311.66015625 66.53125 C-310.65146484 66.06589844 -309.64277344 65.60054688 -308.60351562 65.12109375 C-306.537724 64.16685143 -304.47261661 63.2111264 -302.40820312 62.25390625 C-296.15130553 59.37102172 -289.85198373 56.69760708 -283.4375 54.1875 C-281.67792969 53.46626953 -281.67792969 53.46626953 -279.8828125 52.73046875 C-270.33096501 48.83106748 -260.64616326 45.40106512 -250.89355469 42.04003906 C-248.57280896 41.23446808 -246.25800186 40.41431758 -243.9453125 39.5859375 C-235.67241017 36.62328065 -227.36648946 33.85671367 -218.96484375 31.28125 C-216.12317062 30.40011104 -213.31047208 29.4741671 -210.5 28.5 C-207.7961857 27.58678207 -205.12245243 26.85402591 -202.33203125 26.2578125 C-197.22789276 25.14694556 -192.14443444 23.95804259 -187.0625 22.75 C-186.13058838 22.52900635 -185.19867676 22.3080127 -184.23852539 22.08032227 C-179.75718406 21.00989946 -175.30174414 19.90587032 -170.875 18.625 C-164.72541396 16.87795851 -158.43867176 15.74314366 -152.16381836 14.54467773 C-151.32471924 14.38298096 -150.48562012 14.22128418 -149.62109375 14.0546875 C-148.86368896 13.91144043 -148.10628418 13.76819336 -147.32592773 13.62060547 C-145.36307203 13.24859986 -145.36307203 13.24859986 -143.4375 12.1875 C-140.50167738 11.69071452 -137.57153229 11.23616626 -134.625 10.8125 C-133.73208252 10.68166016 -132.83916504 10.55082031 -131.91918945 10.41601562 C-129.09245008 10.00305728 -126.265002 9.59519998 -123.4375 9.1875 C-121.70830954 8.93505875 -119.97914221 8.68245905 -118.25 8.4296875 C-113.89308921 7.79580377 -109.53392203 7.17937316 -105.17333984 6.57128906 C-103.31899849 6.31115836 -101.46516707 6.04737115 -99.61181641 5.78027344 C-88.16148278 4.13422718 -76.83093995 2.85199507 -65.26171875 2.47802734 C-64.04742188 2.43863037 -64.04742188 2.43863037 -62.80859375 2.3984375 C-61.7556311 2.37209229 -61.7556311 2.37209229 -60.68139648 2.34521484 C-58.33691 2.21794087 -58.33691 2.21794087 -55.65087891 1.70874023 C-37.49145647 -1.23688861 -18.35788512 -0.01587114 0 0 Z " fill="#FEFEFE" transform="translate(1034.4375,280.8125)"/>
<path d="M0 0 C0.66 0.33 1.32 0.66 2 1 C-12.52 15.52 -27.04 30.04 -42 45 C-42 42 -42 42 -40.64233398 40.31762695 C-40.01657471 39.71394287 -39.39081543 39.11025879 -38.74609375 38.48828125 C-38.05580078 37.81216797 -37.36550781 37.13605469 -36.65429688 36.43945312 C-35.92275391 35.73755859 -35.19121094 35.03566406 -34.4375 34.3125 C-29.60536079 29.63067436 -24.93894383 24.92975162 -20.60083008 19.78125 C-18.35276914 17.27982365 -15.82835251 15.17705035 -13.265625 13.0078125 C-8.62971483 8.89943693 -4.34239682 4.41423795 0 0 Z " fill="#E0E0E0" transform="translate(523,480)"/>
</svg>
